<?xml version="1.0" standalone="no"?>
<!DOCTYPE svg PUBLIC "-//W3C//DTD SVG 1.1//EN" "http://www.w3.org/Graphics/SVG/1.1/DTD/svg11.dtd" >
<svg xmlns="http://www.w3.org/2000/svg">
<metadata>
Created by FontForge 20120731 at Wed Apr 27 14:09:22 2016
 By admin
</metadata>
<defs>
<font id="iconfont" horiz-adv-x="1024" >
  <font-face 
    font-family="iconfont"
    font-weight="500"
    font-stretch="normal"
    units-per-em="1024"
    panose-1="2 0 6 3 0 0 0 0 0 0"
    ascent="896"
    descent="-128"
    x-height="792"
    bbox="-0.25 -128 1134 896.513"
    underline-thickness="50"
    underline-position="-100"
    unicode-range="U+0078-E725"
  />
<missing-glyph horiz-adv-x="374" 
d="M34 0v682h272v-682h-272zM68 34h204v614h-204v-614z" />
    <glyph glyph-name=".notdef" horiz-adv-x="374" 
d="M34 0v682h272v-682h-272zM68 34h204v614h-204v-614z" />
    <glyph glyph-name=".null" horiz-adv-x="0" 
 />
    <glyph glyph-name="nonmarkingreturn" horiz-adv-x="341" 
 />
    <glyph glyph-name="x" unicode="x" horiz-adv-x="1001" 
d="M281 543q-27 -1 -53 -1h-83q-18 0 -36.5 -6t-32.5 -18.5t-23 -32t-9 -45.5v-76h912v41q0 16 -0.5 30t-0.5 18q0 13 -5 29t-17 29.5t-31.5 22.5t-49.5 9h-133v-97h-438v97zM955 310v-52q0 -23 0.5 -52t0.5 -58t-10.5 -47.5t-26 -30t-33 -16t-31.5 -4.5q-14 -1 -29.5 -0.5
t-29.5 0.5h-32l-45 128h-439l-44 -128h-29h-34q-20 0 -45 1q-25 0 -41 9.5t-25.5 23t-13.5 29.5t-4 30v167h911zM163 247q-12 0 -21 -8.5t-9 -21.5t9 -21.5t21 -8.5q13 0 22 8.5t9 21.5t-9 21.5t-22 8.5zM316 123q-8 -26 -14 -48q-5 -19 -10.5 -37t-7.5 -25t-3 -15t1 -14.5
t9.5 -10.5t21.5 -4h37h67h81h80h64h36q23 0 34 12t2 38q-5 13 -9.5 30.5t-9.5 34.5q-5 19 -11 39h-368zM336 498v228q0 11 2.5 23t10 21.5t20.5 15.5t34 6h188q31 0 51.5 -14.5t20.5 -52.5v-227h-327z" />
    <glyph glyph-name="uniE600" unicode="&#xe600;" horiz-adv-x="1135" 
d="M442.5 334q-116.5 0 -199 82.5t-82.5 198.5t82.5 198.5t199 82.5t198.5 -82.5t82 -198.5t-82 -198.5t-198.5 -82.5zM442 850q-97 0 -165.5 -69t-68.5 -166t68.5 -166t165.5 -69t166 69t69 166t-69 166t-166 69zM885 -128h-47q0 68 -21 146.5t-59 149.5q-41 77 -92 127.5
t-106 67.5l14 44q63 -20 121 -76t104 -141q40 -76 63 -160t23 -158zM46 -128h-46q0 74 23 158t63 160q46 85 104 141t121 76l14 -44q-55 -17 -106 -67.5t-92 -127.5q-38 -71 -59.5 -149.5t-21.5 -146.5zM1134 -71h-46q0 88 -34 187t-95.5 178t-129.5 100l-17 5v35l12 7
q52 29 82.5 80t30.5 111q0 90 -64 154t-154 64v46q109 0 186.5 -77.5t77.5 -186.5q0 -62 -27 -117t-75 -92q100 -52 173 -192q37 -72 58.5 -152t21.5 -150z" />
    <glyph glyph-name="uniE601" unicode="&#xe601;" horiz-adv-x="1025" 
d="M512 -128q-104 0 -199 40.5t-163.5 109t-109 163.5t-40.5 199t40.5 199t109 163.5t163.5 109t199 40.5t199 -40.5t163.5 -109t109 -163.5t40.5 -199t-40.5 -199t-109 -163.5t-163.5 -109t-199 -40.5zM512 854q-95 0 -182 -37.5t-150 -100.5t-100.5 -150t-37.5 -182
t37.5 -182t100.5 -150t150 -100.5t182 -37.5t182 37.5t150 100.5t100.5 150t37.5 182t-37.5 182t-100.5 150t-150 100.5t-182 37.5zM576 384q0 -27 -18.5 -45.5t-45.5 -18.5t-45.5 18.5t-18.5 45.5t18.5 45.5t45.5 18.5t45.5 -18.5t18.5 -45.5zM491 733h42v-349h-42v349z
M483 387l22 -36l-199 -120l-21 36z" />
    <glyph glyph-name="uniE603" unicode="&#xe603;" horiz-adv-x="1025" 
d="M512 -128q-104 0 -199 40.5t-163.5 109t-109 163.5t-40.5 199t40.5 199t109 163.5t163.5 109t199 40.5t199 -40.5t163.5 -109t109 -163.5t40.5 -199t-40.5 -199t-109 -163.5t-163.5 -109t-199 -40.5zM512 854q-95 0 -182 -37.5t-150 -100.5t-100.5 -150t-37.5 -182
t37.5 -182t100.5 -150t150 -100.5t182 -37.5t182 37.5t150 100.5t100.5 150t37.5 182t-37.5 182t-100.5 150t-150 100.5t-182 37.5zM482 129v113h-145v49h145v50h-145v51h119l-142 248h70l102 -180q17 -30 26 -53q8 18 29 56l95 177h75l-141 -248h119v-51h-144v-50h144v-49
h-144v-113h-63z" />
    <glyph glyph-name="uniE60C" unicode="&#xe60c;" 
d="M1023 31l-301 301q45 85 45 181q0 104 -51 192t-139.5 139.5t-192.5 51.5t-192.5 -51.5t-139.5 -139.5t-51 -192t51 -192.5t139.5 -139.5t192.5 -51q95 0 178 44l302 -302zM129 512.5q0 105.5 74.5 180.5t180.5 75t180.5 -75t74.5 -180.5t-74.5 -180t-180.5 -74.5
t-180.5 74.5t-74.5 180z" />
    <glyph glyph-name="uniE60D" unicode="&#xe60d;" 
d="M511.5 -128q-9.5 0 -15.5 7l-294 319q-2 2 -3 4q-105 118 -105 276q0 113 56 209.5t152.5 152.5t209.5 56t209.5 -56t152.5 -152.5t56 -209.5q0 -84 -32 -160.5t-91 -135.5l-280 -303q-6 -7 -15.5 -7zM236 223l275 -298l265 286v1q54 53 82.5 122t28.5 144
q0 102 -50 188.5t-136.5 136.5t-188.5 50t-188.5 -50t-136.5 -136.5t-50 -188.5q0 -144 97 -251zM512 330q-64 0 -109 45.5t-45 109t45 108.5t109 45t109 -45t45 -108.5t-45 -109t-109 -45.5zM512 595q-46 0 -78.5 -32.5t-32.5 -78.5t32.5 -78.5t78.5 -32.5t78.5 32.5
t32.5 78.5t-32.5 78.5t-78.5 32.5z" />
    <glyph glyph-name="uniE60E" unicode="&#xe60e;" 
d="M136 -112q-26 0 -43 18q-20 20 -20 52l2 852q0 30 18 50t46 20q20 0 39 -11l736 -428q37 -22 37 -59.5t-37 -58.5l-739 -424q-19 -11 -39 -11zM157 786l-2 -804l697 400z" />
    <glyph glyph-name="uniE617" unicode="&#xe617;" 
d="M512 -123q-103 0 -197.5 40.5t-163 108.5t-108.5 162.5t-40 198t40 198t108.5 162.5t163 108.5t197.5 40.5t197.5 -40.5t163 -108.5t108.5 -162.5t40 -198t-40 -198t-108.5 -162.5t-163 -108.5t-197.5 -40.5zM512 879q-104 0 -197 -40.5t-157 -108.5t-101.5 -158
t-37.5 -185.5t38 -185.5t102.5 -157.5t157 -108.5t195.5 -41q96 0 185.5 37.5t157.5 101.5t109 156.5t41 197.5q0 95 -37.5 185t-101.5 158t-157 108.5t-197 40.5zM299 486q-2 5 -5.5 15.5t-4.5 16.5q19 2 36 4q-2 26 -3 33q25 -2 27 -3q11 -1 11 10q0 1 3 23q5 -1 11.5 -3
t11.5 -3.5t12 -3.5q2 6 6 17t6 16q22 -12 24 -13q8 -5 13 4q0 1 13 22q18 -14 28 -21q10 11 24 26q4 -4 12 -12.5t12 -13.5q6 4 29 21q12 -21 13 -22q4 -9 12 -4q2 1 25 12q2 -6 6 -17t6 -15q7 2 19 5.5t16 4.5q2 -20 2 -21q0 -8 3.5 -10.5t10.5 -0.5q2 0 25 2q-1 -1 -4 -33
q5 -1 17 -2t19 -2q-1 -5 -4 -15t-5 -17q5 -1 16.5 -4.5t17.5 -5.5q-15 -26 -16 -29q5 -3 15.5 -8t16.5 -8q-4 -5 -12 -13.5t-11 -12.5q14 -10 28 -21q-14 -11 -28 -21q9 -10 23 -27q-17 -8 -32 -15q8 -15 17 -30q-15 -4 -35 -9q2 -6 5 -17t5 -15q-4 -1 -17 -2t-20 -2
q0 -2 1.5 -13.5t1.5 -18.5h-36q-2 -15 -4 -31q-24 7 -26 7q-10 4 -13 -7q-1 -2 -8 -23l-24 12q-9 5 -13 -4q-1 -1 -13 -21q-14 10 -29 20q-8 -8 -24 -25q-3 3 -11 11.5t-12 13.5q-5 -3 -9.5 -6t-10.5 -7.5t-9 -6.5q-11 18 -12 19q-5 12 -17 5q-2 -1 -21 -11q-8 22 -9 24
q-2 10 -12 6q-2 0 -26 -7q0 2 -1.5 14t-2.5 18q-25 -1 -37 -2q3 30 3 33q-16 2 -36 4q2 6 5 17t5 15q-17 4 -35 9q2 5 16 30l-17 9q-11 5 -15 6q10 11 23 26q-4 3 -13 10.5t-15 11.5q5 4 14 11t14 10q-3 4 -11 12.5t-12 13.5q29 14 33 16q-7 11 -17 29q15 5 35 10zM675 316
h-1q-1 1 -2 1q-16 -34 -17 -36q-8 -13 -20.5 -14t-21.5 12q-13 17 -16 36q-14 74 -1 139q4 18 13 32q9 15 22 15t22 -15q4 -8 12 -31q0 -1 5 -22v77h-2h-1q-4 -9 -7 -15l-8 7q-27 24 -48 -2q-15 -18 -22 -41q-18 -62 -9 -123q7 -49 26 -72q11 -14 26.5 -14.5t27.5 13.5
q14 18 22 53zM461 316q-1 0 -4 1q-14 -32 -15 -34q-9 -15 -22.5 -15.5t-23.5 13.5q-9 12 -12 26q-19 86 2 162q3 11 11 21q9 11 20.5 11t18.5 -12q7 -9 12 -24q0 -2 7 -33v78h-1l-1 1q-3 -8 -7 -16q-7 6 -8 6q-27 24 -50 -2q-9 -10 -12 -19q-35 -87 -12 -173q7 -22 25 -47
q7 -9 19 -10.5t21 5.5q5 4 9 9t6.5 8.5t5.5 11.5l4 10q1 2 4 11t3 11zM471 507q0 -1 -1 -3q16 -5 16 -27q0 -7 -0.5 -79t-0.5 -109q0 -9 -0.5 -13t-5 -9t-12.5 -6q6 -6 26.5 -6.5t23.5 3.5q-1 3 -5 7.5t-6 8t-2 6.5q-1 23 -1 91q0 6 4 8q11 4 19.5 -0.5t9.5 -16.5
q1 -1 3 -16h1q1 0 1 1v81q-1 -4 -2.5 -11t-3 -11t-4.5 -6q-3 -3 -7 -3.5t-11 -1t-11 -1.5v95q0 5 8 6q22 3 30 -3t12 -29l2 -9v53h-83z" />
    <glyph glyph-name="uniE618" unicode="&#xe618;" 
d="M512 -123q-103 0 -197.5 40.5t-163 108.5t-108.5 162.5t-40 198t40 198t108.5 162.5t163 108.5t197.5 40.5t197.5 -40.5t163 -108.5t108.5 -162.5t40 -198t-40 -198t-108.5 -162.5t-163 -108.5t-197.5 -40.5zM512 879q-104 0 -197 -40.5t-157 -108.5t-101.5 -158
t-37.5 -185.5t38 -185.5t102.5 -157.5t157 -108.5t195.5 -41q96 0 185.5 37.5t157.5 101.5t109 156.5t41 197.5q0 95 -37.5 185t-101.5 158t-157 108.5t-197 40.5zM481 314q71 0 121.5 50.5t50.5 122t-50.5 122t-121.5 50.5t-121.5 -50.5t-50.5 -122t50.5 -122t121.5 -50.5z
M479 329q-38 34 -57 90h115q-20 -56 -58 -90zM418 429q-9 31 -9 60q0 24 7 50h126q7 -26 7 -50q0 -29 -9 -60h-122zM501 331q36 38 51 88h68q-19 -34 -51 -58t-68 -30zM627 543q12 -27 12 -54q0 -30 -14 -60h-70q8 28 8 58q0 26 -7 52l70 1zM625 549h-71q-17 57 -59 99
q40 -6 75.5 -33.5t54.5 -65.5zM479 649q41 -38 60 -100h-120q19 62 60 100zM467 648q-43 -42 -59 -99h-75q19 39 56 67t78 32zM319 489q0 25 10 50h76q-6 -26 -6 -52q0 -30 8 -58h-74q-14 30 -14 60zM410 419q15 -50 52 -89q-37 6 -70.5 30t-52.5 59h71zM719 473l-10 6
q0 -89 -66.5 -159.5t-153.5 -70.5v50h-10v-117q-27 -1 -45.5 -20t-18.5 -46l14 3q0 17 17 33.5t33 16.5v-10h10q0 3 1 8q14 -6 29 -21.5t19 -29.5h-123h-79l3 -7h290l-3 7h-79q0 25 -16 43.5t-41 21.5q1 17 1 35.5t-2 18.5q95 5 162.5 74.5t67.5 163.5z" />
    <glyph glyph-name="uniE619" unicode="&#xe619;" 
d="M512 -123q-103 0 -197.5 40.5t-163 108.5t-108.5 162.5t-40 198t40 198t108.5 162.5t163 108.5t197.5 40.5t197.5 -40.5t163 -108.5t108.5 -162.5t40 -198t-40 -198t-108.5 -162.5t-163 -108.5t-197.5 -40.5zM512 879q-104 0 -197 -40.5t-157 -108.5t-101.5 -158
t-37.5 -185.5t38 -185.5t102.5 -157.5t157 -108.5t195.5 -41q96 0 185.5 37.5t157.5 101.5t109 156.5t41 197.5q0 95 -37.5 185t-101.5 158t-157 108.5t-197 40.5zM366 264v-10q0 -5 3 -8t7 -3q3 0 3.5 1.5t-1 4.5t-1.5 5v12q14 3 23 14.5t9 26.5t-9 26t-23 15v50
q21 -13 21 -27q0 -2 -1 -5t-1 -4.5t3 -1.5q4 0 7 3t3 8q0 14 -9 25.5t-23 15.5v12q0 4 -3 7t-7 3q-3 0 -3 -1t1 -4t1 -5v-11q-18 0 -30 -12.5t-12 -29.5q0 -18 12.5 -30t29.5 -13v-53q-9 0 -20.5 11.5t-11.5 20.5q0 2 2 5l2 4q0 1 -3 1q-4 0 -7.5 -3t-3.5 -7
q0 -17 12.5 -29.5t29.5 -13.5zM377 326q21 -7 21 -19q0 -14 -21 -27v46zM357 342q-9 4 -16 13t-7 16q0 9 11.5 20.5t20.5 11.5v-54q-7 -1 -9 -7zM312 488zM675 488q-1 0 -1 1l-10 85q-1 5 -5 7.5t-8 1.5l-328 -95h-11v-245q0 -53 54 -53h255h1h95q2 0 2 1t-1 4t-1 6v95
q0 3 1 5.5t1 4t-2 1.5v74q2 0 2 1.5t-1 4.5t-1 5v96h-42zM653 573l11 -85h-301zM326 231q-2 6 -2 11v65v64v72q2 -2 10 2q21 11 42 11q44 0 80.5 -36.5t36.5 -80.5t-36.5 -80.5t-80.5 -36.5q-30 0 -50 9zM706 201h-85q0 32 26.5 61t58.5 33v-94zM706 306q-40 -4 -67.5 -34
t-27.5 -71h-245q-23 0 -35 19q22 -9 47 -9q52 0 89.5 37.5t37.5 90t-37.5 90t-89.5 37.5q-34 0 -54 -9v20h287q4 -38 31 -64.5t64 -30.5v-76zM706 393q-29 4 -54 29t-30 55h84v-84zM717 488zM717 392zM717 296z" />
    <glyph glyph-name="uniE61A" unicode="&#xe61a;" horiz-adv-x="1143" 
d="M133 594q-4 11 -10.5 32t-10.5 33q40 5 75 8q-5 55 -6 68q52 -5 56 -5q12 -2 17 2.5t6 16.5q0 4 5 48q11 -2 23.5 -6t24.5 -7.5t24 -6.5q4 13 12.5 35.5t11.5 31.5q46 -24 51 -26q16 -10 25 7q2 4 27 46q38 -28 59 -43q4 5 49 53q4 -5 21.5 -23.5t26.5 -29.5q3 2 60 44
q25 -43 27 -47q9 -17 25 -7q4 2 51 25q4 -12 12 -33.5t12 -32.5q22 7 72 20q6 -40 6 -43q-1 -16 6 -21t22 -3q4 1 50 4q-1 -11 -3.5 -33t-3.5 -33q11 -2 35.5 -4.5t39.5 -4.5q-3 -10 -9.5 -31t-10.5 -34q11 -3 34.5 -9.5t36.5 -10.5q-23 -42 -34 -62q11 -5 67 -31
q-17 -20 -47 -53q9 -7 27.5 -21.5t29.5 -22.5l-1 -1l-1 -1l-1 -1h-1l-1 -1l-1 -1l-1 -1h-1l-1 -1l-1 -1l-1 -1h-1l-1 -1l-1 -1l-1 -1h-1l-1 -1l-1 -1l-1 -1h-1l-1 -1l-1 -1l-1 -1h-1l-1 -1l-1 -1l-1 -1h-1l-1 -1l-1 -1l-1 -1h-1l-1 -1l-1 -1l-1 -1l-1 -1l-1 -1l-1 -1l-1 -1
h-1l-1 -1l-1 -1l-1 -1h-1l-1 -1l-1 -1l-1 -1h-1l-1 -1l-1 -1l-1 -1h-1l-1 -1l-1 -1l-1 -1l-1 -1h-1q8 -9 23.5 -27t23.5 -27q-65 -31 -67 -32q6 -10 18 -30.5t18 -30.5q-28 -7 -73 -19q3 -10 20 -66q-7 -1 -33.5 -4t-41.5 -4q1 -7 3.5 -29.5t3.5 -35.5h-75q-4 -31 -9 -65
q-49 14 -53 15q-21 7 -27 -14q-1 -4 -16 -47l-50 25q-18 10 -27 -9q-1 -3 -26 -44q-42 30 -59 42q-16 -17 -49 -52q-31 33 -48 52q-9 -6 -19 -13t-22 -15.5t-19 -13.5q-22 36 -23 39q-11 26 -37 10q-2 -1 -43 -21q-16 45 -17 49q-5 19 -25 12q-4 -1 -54 -15q-1 6 -4 29.5
t-5 37.5q-50 -3 -75 -4q6 61 6 67q-34 3 -75 8q4 12 11 34t9 32q-34 9 -71 19q6 11 17.5 31.5t16.5 29.5q-11 6 -33 16.5t-33 15.5q35 39 47 53q-10 9 -30.5 24t-27.5 21q11 7 30 21.5t29 22.5q-31 34 -49 53q10 4 32.5 14.5t34.5 17.5q-32 59 -33 60q30 9 71 21zM907 244
q-1 0 -3 1t-3 1q-4 -7 -11 -23t-13 -28.5t-12 -22.5q-17 -27 -42.5 -28.5t-44.5 23.5q-25 35 -32 74q-29 153 -1 287q8 37 25 66q19 31 46 31t45 -31q9 -16 25 -64q1 -3 10 -45v159q-1 -1 -2 -1h-3q-1 -1 -6 -12t-8 -18q-17 13 -18 13q-55 50 -99 -4q-30 -37 -45 -85
q-38 -127 -19 -252q7 -49 18.5 -84t35.5 -64.5t55.5 -29.5t55.5 28q30 37 46 109zM467 244q-1 0 -4 1t-4 1q-30 -66 -32 -70q-18 -31 -45.5 -32.5t-47.5 27.5q-19 26 -25 55q-40 177 3 332q7 24 23 44q18 23 41.5 22.5t39.5 -24.5q13 -19 23 -49q2 -6 16 -68v161h-3h-2
q-6 -15 -13 -31l-17 12q-29 27 -53.5 25.5t-49.5 -30.5q-18 -21 -26 -39q-72 -179 -23 -355q13 -46 50 -97q14 -19 39.5 -22t43.5 11q10 8 18.5 18t14 17.5t11.5 23t8 20.5t7.5 24.5t6.5 22.5zM487 637l-2 -6q33 -11 33 -57q0 -44 -0.5 -121.5t-1 -142.5t-0.5 -122
q0 -13 -1 -19.5t-4 -16t-11 -14.5t-21 -7q13 -12 54.5 -13.5t48.5 7.5q-3 5 -10.5 14.5t-11.5 17t-5 13.5q-2 47 -2 187q1 13 9 16q21 10 38.5 -0.5t21.5 -33.5q0 -2 4 -33q1 0 3 0.5t3 0.5v167q-2 -8 -5.5 -22.5t-6.5 -22.5t-9 -13t-15 -6.5t-23.5 -3t-21.5 -2.5v197
q0 3 6 7t10 4q46 6 62.5 -6.5t24.5 -58.5q1 -1 5 -18v108h-172z" />
    <glyph glyph-name="uniE61B" unicode="&#xe61b;" 
d="M455.5 257q86.5 0 160 43t116 116.5t42.5 160t-42.5 160t-116 116.5t-160 43t-160 -43t-116 -116.5t-42.5 -160t42.5 -160t116 -116.5t160 -43zM452 284q-71 64 -107 167h213q-36 -103 -106 -167zM339 470q-17 57 -17 111q0 44 13 93l233 1q14 -50 14 -94q0 -54 -18 -111
h-225zM492 288q66 71 95 163h125q-35 -62 -94 -106.5t-126 -56.5zM727 681q21 -51 21 -100q0 -55 -26 -111h-129q14 53 14 107q0 49 -12 98h130zM722 692h-132q-30 106 -108 183q74 -9 140 -60t100 -123zM563 692h-223q36 115 112 185q76 -70 111 -185zM429 876
q-79 -77 -109 -184h-138q34 73 102.5 125t144.5 59zM155 581q0 45 19 93h141q-12 -49 -12 -97q0 -54 14 -107h-135q-27 56 -27 111zM323 451q29 -93 96 -164q-68 10 -130 55t-98 109h132zM897 552l-19 10q0 -79 -33.5 -157t-89 -137t-131 -95.5t-154.5 -36.5v93h-18v-218
q-50 -1 -84.5 -36.5t-34.5 -85.5l26 6q0 31 31 62t62 31v-19h18q1 6 1 15q27 -11 55 -40.5t35 -54.5h-228h-147l6 -12h538l-5 12h-147q0 46 -30.5 80.5t-74.5 40.5q2 31 2 65.5t-4 33.5q85 5 163.5 42t136 96t92 138.5t34.5 166.5z" />
    <glyph glyph-name="uniE61C" unicode="&#xe61c;" 
d="M251 179v-18q0 -8 5.5 -13.5t13.5 -5.5q5 0 5 2t-1.5 7.5t-1.5 8.5v22q24 6 40 26t16 45.5t-16 45.5t-40 26v88q14 -9 24.5 -23t10.5 -25q0 -3 -1.5 -8.5t-1.5 -8t5 -2.5q8 0 13.5 5.5t5.5 13.5q0 25 -16 45t-40 27v21q0 8 -5.5 13.5t-13.5 5.5q-4 0 -4.5 -2t1 -7.5
t1.5 -9.5v-18q-30 0 -51 -22t-21 -53q0 -30 21 -51.5t51 -22.5v-93q-15 0 -35.5 20t-20.5 36q0 4 3 9t3.5 6.5t-3.5 2.5q-8 0 -13.5 -5.5t-5.5 -13.5q0 -30 21 -51.5t51 -22.5zM272 287q14 -5 24.5 -14t10.5 -19.5t-10.5 -24.5t-24.5 -23v81zM236 314q-15 8 -28 24t-13 27
q0 16 20.5 36t35.5 20v-94q-12 -1 -15 -13zM792 570l-1 2l-18 149q-1 8 -8 13t-15 2l-573 -166h-19v-428q0 -45 24 -69t69 -24h448v0h167q4 0 4 2t-2 7.5t-2 8.5v168q0 4 2 9t2 7t-4 2v131q4 0 4 2t-2 7.5t-2 9.5v167h-74zM754 719l19 -149h-526zM182 121q-3 10 -3 19v113
v112v127q3 -3 16 4q37 18 75 18q77 0 141 -64t64 -140.5t-64 -140.5t-141 -64q-52 0 -88 16zM847 67h-149q0 57 46 107.5t103 58.5v-166zM847 253q-70 -8 -118.5 -61t-48.5 -125h-429q-40 0 -61 35q40 -16 82 -16q92 0 157.5 65.5t65.5 158t-65.5 157.5t-157.5 65
q-58 0 -93 -17v36h502q7 -66 54 -113t112 -53v-132zM847 404q-52 8 -95.5 51.5t-51.5 95.5h147v-147zM158 570zM866 570zM866 403zM866 235z" />
    <glyph glyph-name="uniE646" unicode="&#xe646;" 
d="M245 878q-18 18 -43 18t-43 -18t-18 -44t18 -44l571 -406l-571 -407q-18 -18 -18 -43.5t18 -43.5t42 -18q26 0 44 18l615 451q18 18 18 43t-18 43z" />
    <glyph glyph-name="uniE648" unicode="&#xe648;" horiz-adv-x="1076" 
d="M249 894q43 0 73.5 -30.5t30.5 -73.5t-30.5 -73.5t-73.5 -30.5t-73 30.5t-30 73.5t30 73.5t73 30.5zM98 643q40 0 68 -28t28 -68t-28 -68t-68 -28t-68 28t-28 68t28 68t68 28zM100 383q37 0 62.5 -26t25.5 -62.5t-25.5 -62t-62 -25.5t-62 25.5t-25.5 62t25.5 62.5
t61.5 26zM210 178q33 0 56.5 -23.5t23.5 -56.5t-23.5 -56.5t-56.5 -23.5t-56.5 23.5t-23.5 56.5t23.5 56.5t56.5 23.5zM375 53q30 0 51 -21t21 -51t-21 -51t-50.5 -21t-51 21t-21.5 51t21.5 51t50.5 21zM556 6q27 0 45.5 -19t18.5 -45.5t-18.5 -45t-45 -18.5t-45.5 18.5
t-19 45t19 45.5t45 19zM724 24q24 0 40 -16t16 -39.5t-16 -40t-39.5 -16.5t-40 16.5t-16.5 40t16.5 39.5t39.5 16zM862 92q20 0 34.5 -14.5t14.5 -34.5t-14.5 -34t-34 -14t-34 14t-14.5 34t14.5 34.5t33.5 14.5zM963 190q17 0 28.5 -12t11.5 -28.5t-11.5 -28.5t-28.5 -12
t-28.5 12t-11.5 28.5t11.5 28.5t28.5 12zM1024 304q14 0 23 -9.5t9 -23t-9 -23t-22.5 -9.5t-23 9.5t-9.5 23t9.5 23t22.5 9.5zM1048 422q10 0 17.5 -7.5t7.5 -17.5t-7.5 -17t-17.5 -7t-17 7t-7 17t7 17.5t17 7.5z" />
    <glyph glyph-name="uniE649" unicode="&#xe649;" 
d="M509 882q-101 0 -193.5 -39.5t-159 -106t-106 -158.5t-39.5 -193.5t39.5 -194t106 -159t159 -106t193.5 -39.5t193.5 39.5t159 106t106 159t39.5 194t-39.5 193.5t-106 158.5t-159 106t-193.5 39.5zM509 -67q-92 0 -175.5 35.5t-144 96t-96 144t-35.5 175.5t35.5 175.5
t96 144t144 96t175.5 35.5t175.5 -35.5t144 -96t96 -144t35.5 -175.5t-35.5 -175.5t-96 -144t-144 -96t-175.5 -35.5zM757 600l-32 32l-216 -216l-216 216l-32 -32l216 -216l-216 -216l32 -32l216 216l216 -216l32 32l-216 216zM757 600z" />
    <glyph glyph-name="uniE64A" unicode="&#xe64a;" horiz-adv-x="1086" 
d="M1084 539q-43 117 -127 209q-83 91 -197 146q-14 6 -25 -4l-484 -442l-56 -51q-5 -4 -7 -9q0 -1 -1 -2l-130 -338l-55 -145q-6 -13 4 -24q7 -7 17 -7q4 0 6 1l149 42l350 99q3 1 6 3t4 3l57 52l483 442q12 10 6 25zM91 7l1 -1h2q17 -11 27 -22t19 -28v-2l1 -1l-80 -23z
M510 57l-324 -92q0 2 -1.5 3.5t-1.5 2.5q-13 27 -28 44q-16 17 -42 32l-3 3q-1 1 -2 1l121 314l36 33l29 -32l252 -276zM581 122l-74 80l385 351q7 7 7 17q0 9 -6 15q-6 7 -15.5 7.5t-16.5 -5.5l-385 -351l-15 16l-58 64l385 351q7 7 7 17q0 9 -6 15q-6 7 -15.5 7.5
t-16.5 -5.5l-385 -351l-73 80l455 415q97 -49 169 -128t112 -180z" />
    <glyph glyph-name="uniE64B" unicode="&#xe64b;" 
d="M760 -128h-496q-75 0 -127.5 52.5t-52.5 127.5v265q0 75 52.5 127.5t127.5 52.5h496q75 0 127.5 -52.5t52.5 -127.5v-265q0 -75 -52.5 -127.5t-127.5 -52.5zM264 452q-56 0 -95.5 -39.5t-39.5 -95.5v-265q0 -56 39.5 -95.5t95.5 -39.5h496q56 0 95.5 39.5t39.5 95.5v265
q0 56 -39.5 95.5t-95.5 39.5h-496zM666 889q-22 6 -79 6h-103q-7 0 -32 0.5t-35 0.5t-31 -2t-33.5 -5t-29 -9.5t-30.5 -16.5q-30 -21 -50 -53.5t-25 -69.5q-2 -13 -2 -55v-202q0 -10 -1 -27l46 27v231q0 60 42.5 98.5t103.5 38.5h189q54 0 85 -17q33 -17 52 -49.5t19 -68.5
v-234l45 -3v228q0 64 -35.5 113.5t-95.5 68.5zM563 239.5q0 -23.5 -16.5 -40.5t-40.5 -17t-40.5 17t-16.5 40.5t16.5 40.5t40.5 17t40.5 -17t16.5 -40.5zM484 240h44v-192h-44v192z" />
    <glyph glyph-name="uniE64C" unicode="&#xe64c;" 
d="M539 -128q-18 0 -34 1q-12 -1 -25 -1q-123 0 -293 44q-94 21 -158 50q-7 3 -10 10q-2 4 -3 10t0.5 21t7 32.5t19.5 46t36 60.5q0 1 1 1q19 27 62 48q3 3 6 4l194 93q1 1 1.5 4t0.5 5q4 13 6 21v2q-27 40 -41 85q-18 15 -23 44q-16 57 0 78q4 5 8 8q-24 124 -5 174
q10 33 32 61t46.5 45.5t37.5 25.5t22 12q41 20 96 38q9 3 17.5 -3t8.5 -16q0 -6 8 -14t16 -14q1 -1 3 -2q3 -2 21 -12q7 -3 10 -5q69 -21 103 -64q23 -26 33 -60t7.5 -67t-7 -54.5t-10.5 -39.5q4 -3 6 -8q14 -26 -2 -72q-10 -45 -29 -67q-15 -39 -40 -74q0 -4 3 -14l1 -1
q2 -8 5 -16l139 -77q35 -16 77 -38t53 -31q15 -12 39.5 -69t22.5 -89q-1 -23 -17 -33q-1 0 -2 -1q-20 -8 -53.5 -20t-131 -33t-197.5 -26q-36 -3 -68 -3zM505 -86h1q16 -1 33 -1q31 0 66 2q88 5 175.5 22.5t124.5 29.5t63 22q3 16 -16.5 64t-31.5 62q-10 7 -49 28t-72 35
q-1 0 -2 1l-144 80q-4 2 -7 6t-5 8q-5 11 -8 22v1q-7 20 -6 34q0 7 4 12q26 34 40 73q1 4 4 7q14 14 22 52q0 1 1 2q5 15 6 26q-7 2 -12 8t-5 14v5q0 2 1 4l2 8v1l1 5q1 2 1 3q2 5 5 14t7.5 33.5t5 46.5t-6.5 49t-24 46q-1 0 -1 1q-3 4 -9 10t-28 19.5t-49 21.5q-3 1 -5 3
q-2 1 -9 4q-23 12 -28 17q-23 15 -34 35q-43 -16 -71 -30h-1q-4 -2 -10.5 -5.5t-23.5 -14.5t-31.5 -24t-29.5 -33.5t-22 -42.5v-1q-15 -45 10 -164v-3v-12q1 -11 -9 -18q-4 -2 -9 -3q1 -16 7 -36v-3q3 -16 9 -20q9 -4 11 -13q13 -47 43 -88q6 -8 2 -19q-1 -4 -7 -29
q-3 -10 -3 -13q-4 -16 -15 -20l-194 -92q-2 -3 -6 -5q-36 -16 -54 -38q-54 -81 -56 -125q58 -24 140 -42h1q165 -43 283 -43q12 0 24 1h1zM359 298q-5 0 -9 -2h1q4 2 9 2h-1zM372 307q14 0 19 12l-1 -1q-5 -11 -18 -11z" />
    <glyph glyph-name="uniE64D" unicode="&#xe64d;" 
d="M134 153q-30 -30 -30 -73.5t30 -73.5t73.5 -30t73.5 30t30 73.5t-30 73.5q-30 29 -74 29t-73 -29zM247 40q-16 -16 -39.5 -16t-39.5 16q-17 16 -17 39.5t16.5 40t40 16.5t40 -16.5t16.5 -40t-17 -39.5zM1000 896h-170q-10 0 -17 -7l-495 -495q-65 13 -129.5 -5.5
t-111.5 -65.5q-77 -78 -77 -187t77 -187q78 -77 187.5 -77t186.5 77q47 47 65.5 111t5.5 130l173 173h103q9 0 16 6t8 16l12 109h95q9 0 16 6.5t8 15.5l13 119l51 50q7 7 7 17v170q0 10 -7 17t-17 7zM976 712l-49 -50q-6 -6 -7 -14l-12 -106h-92q-10 0 -20 -11q-6 -6 -7 -14
l-12 -106h-92q-10 0 -17 -7l-190 -190q-9 -10 -6 -23q15 -57 0.5 -112t-55.5 -96q-61 -61 -153 -61t-153 61q-63 63 -63 153t63 153t152 63q28 0 56 -8q13 -3 23 6l498 498h136v-136z" />
    <glyph glyph-name="uniE64E" unicode="&#xe64e;" horiz-adv-x="1108" 
d="M1011 799q-48 47 -109 72t-126 25q-126 0 -222 -86q-96 86 -222 86q-65 0 -126 -25t-108.5 -72.5t-72.5 -109.5t-25 -125t25 -125.5t72 -109.5l457 -457l457 457q63 63 86 149t0 171.5t-86 149.5zM554 -50l-417 418q-81 81 -81 196t81 196t195 81q102 0 181 -69l41 -38
l40 38q80 69 182 69q114 0 195 -81t81 -196t-81 -196z" />
    <glyph glyph-name="uniE64F" unicode="&#xe64f;" 
d="M773 -52h-175v174h175v-174zM598 122h-174v175h174v-175zM424 297h-174v174h174v-174zM598 471h-174v174h174v-174zM773 645h-175v175h175v-175zM773 297h-175v174h175v-174zM773 297z" />
    <glyph glyph-name="uniE656" unicode="&#xe656;" 
d="M240 896l-218 -213v-811h333v53h-280v735l187 183h523v-209h53v262h-598zM155 62v328h123q33 0 50 -3q25 -4 41 -15t26 -31.5t10 -45.5q0 -41 -26.5 -70.5t-96.5 -29.5h-84v-133h-43zM198 234h85q42 0 60 16t18 44q0 21 -10.5 35.5t-27.5 19.5q-11 3 -41 3h-84v-118z
M461 62v328h124q32 0 50 -3q24 -4 40.5 -15t26.5 -31.5t10 -45.5q0 -41 -27 -70.5t-96 -29.5h-85v-133h-43zM504 234h85q42 0 60 16t18 44q0 21 -10.5 35.5t-27.5 19.5q-11 3 -41 3h-84v-118zM851 62v290h-109v38h261v-38h-109v-290h-43z" />
    <glyph glyph-name="uniE657" unicode="&#xe657;" 
d="M239 896l-218 -213v-811h332v53h-279v735l187 183h523v-209h53v262h-598zM429 498h574v-53h-574v53zM429 269h574v-53h-574v53zM429 10h574v-53h-574v53z" />
    <glyph glyph-name="uniE658" unicode="&#xe658;" 
d="M683 509l269 269l-1 -152q0 -10 7 -17t16 -7h16q10 1 16.5 6.5t7.5 14.5v227l1 12q0 10 -6 16q-7 7 -16 6h-11h-1l-225 1q-9 0 -16 -7t-7 -17v-16q1 -11 8.5 -17.5t17.5 -5.5l148 -1l-269 -267q-9 -10 -9 -23t9.5 -22t22.5 -9t22 9v0zM343 256l-270 -268l1 152
q0 9 -6.5 16t-15.5 7h-17q-10 0 -17 -5.5t-7 -14.5v-227l-1 -12q0 -11 6 -17t16 -6h11h1l226 -1q9 1 16 7.5t7 16.5v16q-1 11 -9 17.5t-17 6.5h-149l269 268q9 9 9 22t-9 22t-22 9t-22 -9v0zM1014 -84v227q-1 9 -7.5 14.5t-16.5 5.5h-16q-9 0 -15.5 -7t-6.5 -16l1 -152
l-270 268q-9 9 -22 9t-22.5 -9t-9.5 -22t9 -22l269 -268h-148q-10 0 -17.5 -6.5t-8.5 -17.5v-16q0 -9 7 -16t16 -8l225 1v0h12q10 0 16 6t5 17v12v0zM119 821l148 1q10 -1 17.5 5.5t8.5 17.5v16q0 10 -7 17t-16 7l-226 -1h-1h-11q-10 1 -16 -6q-6 -6 -6 -16l1 -12v-227
q0 -9 7 -15t16 -6h18q9 0 15.5 7t6.5 17l-1 151l270 -268q9 -9 22 -9t22 9t9 22t-9 22l-268 268v0zM119 821z" />
    <glyph glyph-name="uniE659" unicode="&#xe659;" 
d="M935 896h-846q-37 0 -63 -26t-26 -63v-846q0 -37 26 -63t63 -26h846q37 0 63 26t26 63v846q0 37 -26 63t-63 26zM134 -83h-45q-18 0 -31 13t-13 31v134h89v-178zM134 139h-89v223h89v-223zM134 406h-89v223h89v-223zM134 673h-89v134q0 18 13 31t31 13h45v-178zM846 -83
h-668v934h668v-934zM979 -39q0 -18 -13 -31t-31 -13h-45v178h89v-134zM979 139h-89v223h89v-223zM979 406h-89v223h89v-223zM979 673h-89v178h45q18 0 31 -13t13 -31v-134zM340.5 190.5q6.5 -6.5 16 -6.5t15.5 6l312 179q6 7 6 16t-6 16l-312 177q-6 7 -15.5 7t-15.5 -7
q-7 -7 -7 -17v-355q0 -9 6.5 -15.5zM379 516h2v5l241 -137l-243 -140v272z" />
    <glyph glyph-name="uniE65A" unicode="&#xe65a;" 
d="M952 -25l-409 410l407 408q7 7 7 16t-6.5 15.5t-15.5 6.5t-16 -7l-407 -408l-407 408q-7 7 -16 7t-15.5 -6.5t-6.5 -15.5t7 -16l407 -408l-409 -410q-7 -7 -7 -16t6.5 -15.5t15.5 -6.5t16 7l409 410l409 -410q7 -7 16 -7t15.5 6.5t6.5 15.5t-7 16z" />
    <glyph glyph-name="uniE65C" unicode="&#xe65c;" horiz-adv-x="1131" 
d="M972 -128h-814q-65 0 -111.5 46.5t-46.5 111.5v340h61v-340q0 -40 28.5 -68.5t68.5 -28.5h814q40 0 68.5 28.5t28.5 68.5v340h61v-340q0 -65 -46.5 -111.5t-111.5 -46.5zM787 625q-18 -17 -35.5 -12t-23.5 30l-49 208q-6 25 7 37.5t37 5.5l207 -62q24 -7 28 -24.5
t-14 -34.5zM440 104l-62 1q4 242 98 411.5t272 254.5l27 -56q-329 -156 -335 -611z" />
    <glyph glyph-name="uniE65E" unicode="&#xe65e;" 
d="M513 799q-124 0 -227.5 -59.5t-163 -163t-59.5 -227.5t59.5 -227t163 -162.5t227.5 -59.5t227.5 59.5t163 162.5t59.5 227t-59.5 227.5t-163 163t-227.5 59.5zM513 -10q-97 0 -180 48t-131.5 131t-48.5 180.5t48.5 180.5t131.5 131t180 48t180 -48t131.5 -131
t48.5 -180.5t-48.5 -180.5t-131.5 -131t-180 -48zM558 367v252q0 20 -12.5 32.5t-32.5 12.5t-32.5 -12.5t-12.5 -32.5v-270q0 -4 4.5 -17.5t4.5 -18.5l144 -144q9 -9 36 -9t36 9q13 14 13 32t-13 31zM306 799q0 5 -4.5 14t-4.5 13q-40 34 -98.5 34t-99.5 -34l-63 -63
q-33 -40 -33 -98.5t33 -99.5q5 0 14 -4.5t13 -4.5q34 81 98 145t145 98zM990 763l-63 63q-41 41 -95 41t-94 -41q-5 -4 -9.5 -13t-8.5 -14q179 -89 243 -243q4 5 13 9.5t14 8.5q33 34 33 91.5t-33 97.5z" />
    <glyph glyph-name="uniE660" unicode="&#xe660;" horiz-adv-x="1099" 
d="M570 -119l-21 -9l-20 9q-126 77 -249.5 209t-201.5 272t-78 237q1 123 88.5 210t211.5 87q76 0 142 -36t107 -98q42 62 108 98t142 36q124 0 211.5 -87t88.5 -210q0 -97 -78 -237t-201.5 -272t-249.5 -209zM799 846q-63 0 -118 -29.5t-90 -81.5l-42 -62l-41 62
q-35 52 -90 81.5t-118 29.5q-103 0 -176.5 -72.5t-73.5 -174.5q0 -86 73.5 -216t190 -256t235.5 -200q120 74 236.5 200t190 256t73.5 216q-1 102 -74 174.5t-176 72.5z" />
    <glyph glyph-name="uniE661" unicode="&#xe661;" 
d="M78 464l-24 38q-5 8 -14.5 10.5t-18.5 -3t-11 -15.5t3 -18l61 -97q6 -10 17.5 -11.5t19.5 6.5l84 78q6 6 7 15q2 11 -6 19q-7 8 -17 8t-17 -7l-37 -34q18 100 82 177.5t157.5 115t195.5 23.5q105 -14 189 -79t124 -163q3 -9 12.5 -13t18.5 0q13 5 15 19q1 6 -1 12
q-45 110 -139 183.5t-212 88.5q-115 15 -220 -26.5t-176.5 -128t-92.5 -198.5zM830 321q-8 -7 -8 -17t6.5 -17.5t16.5 -8t18 6.5l31 29q-18 -99 -82 -176.5t-157.5 -114.5t-195.5 -23q-104 13 -188 77.5t-123 161.5q-4 9 -13.5 13t-18.5 0t-13 -13t0 -18q44 -109 138 -181.5
t211 -88.5q116 -15 222.5 28t178.5 132t90 204l27 -44q6 -8 15.5 -10.5t18.5 2.5q9 7 11 18q1 8 -4 16l-60 97q-6 9 -17.5 10.5t-19.5 -5.5z" />
    <glyph glyph-name="uniE662" unicode="&#xe662;" 
d="M886 881q26 0 44 -18q20 -19 20 -52v-851q0 -31 -18 -51t-45 -20q-20 0 -39 11l-738 426q-37 21 -37 58.5t37 59.5l737 426q19 11 39 11zM868 -17v804l-696 -402z" />
    <glyph glyph-name="uniE663" unicode="&#xe663;" 
d="M672 -16q-20 0 -34 14l-352 352q-14 14 -14 34t14 34l352 352q14 14 34 14t34 -14t14 -34t-14 -34l-318 -318l318 -318q14 -14 14 -34t-14 -34t-34 -14z" />
    <glyph glyph-name="uniE664" unicode="&#xe664;" 
d="M888 598q-10 9 -23 8.5t-22 -10.5l-427 -454l-233 230q-10 9 -23 9t-22.5 -9.5t-9.5 -23t10 -22.5l256 -253h1q1 -1 7 -4q0 -1 1 -1.5t2 -1.5q6 -2 12 -2t12 3q1 0 2 1t2 1q5 3 7 5v0l449 479q9 9 9 22.5t-10 22.5z" />
    <glyph glyph-name="uniE665" unicode="&#xe665;" horiz-adv-x="1028" 
d="M793 769q-7 10 -19 10h-248h-51q-2 0 -2.5 -5t1.5 -12t3.5 -14t4 -13.5t2.5 -7.5q0 -2 10 -0.5t11 0.5l162 -265l-2 21l-186 -489q-3 -7 -4 -13q-2 -18 13 -27q14 -8 29 1q5 4 10 9l420 407q7 7 7 17t-7 17.5t-17 7.5t-17 -7l-421 -408q6 7 21 -2.5t11 -18.5l187 489
q4 10 -2 20l-162 280l-21 -36h248l-19 10l204 -269q6 -8 16 -9.5t18 4.5t9.5 16t-4.5 18zM773 721l-97 -226l-14 -34h37h292v48h-292l22 -34l97 227zM451 766l-161 -280l-6 -9l4 -11l174 -488q-4 9 11 18t21 2l-445 493l2 -31l194 280l-20 -10h247zM494 742l21 37h-43h-247
h-13l-7 -11l-194 -280l-11 -16l13 -14l445 -493q6 -6 11 -9q15 -10 29 -1.5t13 26.5q-1 6 -4 13l-173 488l-2 -20zM192 702l97 -227l22 34h-259v-48h259h37l-15 34l-97 226zM310 473h656q11 0 18 7.5t7 17.5t-7 17t-18 7h-656q-10 0 -17 -7t-7 -17t7 -17.5t17 -7.5z" />
    <glyph glyph-name="uniE69C" unicode="&#xe69c;" 
d="M333 646q28 0 58.5 -12.5t50.5 -31.5l25 -26l45 -45l45 45l25 26q45 44 109 44q19 0 58 -12q68 -39 77 -109q10 -73 -39 -122l-275 -281l-275 281q-55 55 -45 122q9 63 77 109q38 12 64 12zM333 710q-51 0 -90 -19q-65 -34 -95.5 -95t-20 -125.5t58.5 -112.5l281 -281
q19 -19 45 -19q11 0 22.5 5t15.5 14l282 281q47 48 58 112.5t-19.5 125.5t-96.5 95q-38 19 -89 19q-43 0 -83.5 -17t-70.5 -47l-19 -25l-26 25q-29 30 -70 47t-83 17z" />
    <glyph glyph-name="uniE69D" unicode="&#xe69d;" 
d="M781 691q-64 32 -129 18.5t-114 -63.5l-26 -25l-26 25q-48 48 -116.5 61t-126.5 -16q-65 -34 -95.5 -95t-20 -125.5t58.5 -112.5l32 -32l153 -153l103 -103q19 -19 41.5 -19t41.5 19l102 103l154 153l32 32q44 48 53 112.5t-21.5 125.5t-95.5 95z" />
    <glyph glyph-name="uniE725" unicode="&#xe725;" 
d="M512 -64q-185 0 -316.5 131.5t-131.5 316.5t131.5 316.5t316.5 131.5t316.5 -131.5t131.5 -316.5t-131.5 -316.5t-316.5 -131.5zM512 768q-104 0 -192.5 -51.5t-140 -140t-51.5 -192.5t51.5 -192.5t140 -140t192.5 -51.5t192.5 51.5t140 140t51.5 192.5t-51.5 192.5
t-140 140t-192.5 51.5zM557 383l138 136q10 10 10 23t-9.5 22.5t-22.5 9.5t-23 -9l-138 -137l-137 137q-9 9 -22 9t-22.5 -9t-9.5 -22.5t9 -22.5l136 -137l-137 -136q-9 -9 -9.5 -22.5t9 -23t22.5 -9.5q14 0 23 10l138 136l138 -140q10 -9 23 -9t22.5 9.5t9.5 22.5t-9 23z
" />
  </font>
</defs>
</svg>
